<?xml version="1.0" encoding="UTF-8"?>
<svg height="16px" viewBox="0 0 16 16" width="16px" xmlns="http://www.w3.org/2000/svg">
    <path d="m 2 2 c -1.109375 0 -2 0.890625 -2 2 v 8 c 0 1.109375 0.890625 2 2 2 h 12 c 1.109375 0 2 -0.890625 2 -2 v -8 c 0 -1.109375 -0.890625 -2 -2 -2 z m 4 1 c 2.042969 0 3.882812 1.246094 4.640625 3.144531 l 2.785156 -1.960937 c 0.449219 -0.320313 1.074219 -0.210938 1.394531 0.242187 c 0.316407 0.453125 0.207032 1.074219 -0.242187 1.394531 l -3.609375 2.539063 c -0.1875 2.609375 -2.355469 4.632813 -4.96875 4.640625 c -2.761719 0 -5 -2.238281 -5 -5 s 2.238281 -5 5 -5 z m 8 7 c 0.550781 0 1 0.449219 1 1 c 0 0.554688 -0.449219 1 -1 1 s -1 -0.445312 -1 -1 c 0 -0.550781 0.449219 -1 1 -1 z m 0 0"/>
    <path d="m 11.476562 5.554688 l -4.59375 3.234374 c -0.453124 0.320313 -0.5625 0.941407 -0.242187 1.394532 s 0.941406 0.558594 1.394531 0.242187 l 3.953125 -2.785156 c -0.042969 -0.71875 -0.21875 -1.429687 -0.511719 -2.085937 z m 0 0" fill="#040302"/>
</svg>
