<?xml version="1.0" encoding="UTF-8" standalone="no"?>
<svg
   xmlns:dc="http://purl.org/dc/elements/1.1/"
   xmlns:cc="http://creativecommons.org/ns#"
   xmlns:rdf="http://www.w3.org/1999/02/22-rdf-syntax-ns#"
   xmlns:svg="http://www.w3.org/2000/svg"
   xmlns="http://www.w3.org/2000/svg"
   xmlns:sodipodi="http://sodipodi.sourceforge.net/DTD/sodipodi-0.dtd"
   xmlns:inkscape="http://www.inkscape.org/namespaces/inkscape"
   width="128"
   height="128"
   viewBox="0 0 33.866666 33.866668"
   version="1.1"
   id="svg8"
   inkscape:version="1.0.1 (3bc2e813f5, 2020-09-07)"
   sodipodi:docname="musicus.svg">
  <defs
     id="defs2" />
  <sodipodi:namedview
     id="base"
     pagecolor="#ffffff"
     bordercolor="#666666"
     borderopacity="1.0"
     inkscape:pageopacity="0.0"
     inkscape:pageshadow="2"
     inkscape:zoom="3.6046466"
     inkscape:cx="31.109369"
     inkscape:cy="42.493912"
     inkscape:document-units="px"
     inkscape:current-layer="layer1"
     inkscape:document-rotation="0"
     showgrid="true"
     inkscape:window-width="1396"
     inkscape:window-height="1016"
     inkscape:window-x="50"
     inkscape:window-y="27"
     inkscape:window-maximized="0"
     units="px">
    <inkscape:grid
       type="xygrid"
       id="grid851"
       spacingx="1.0583333"
       spacingy="1.0583333"
       empspacing="4" />
  </sodipodi:namedview>
  <metadata
     id="metadata5">
    <rdf:RDF>
      <cc:Work
         rdf:about="">
        <dc:format>image/svg+xml</dc:format>
        <dc:type
           rdf:resource="http://purl.org/dc/dcmitype/StillImage" />
        <dc:title></dc:title>
      </cc:Work>
    </rdf:RDF>
  </metadata>
  <g
     inkscape:label="Ebene 1"
     inkscape:groupmode="layer"
     id="layer1">
    <circle
       style="fill:#303030;fill-opacity:1;stroke:none;stroke-width:0.2;stroke-opacity:0.5;opacity:1"
       id="path853"
       cx="16.933332"
       cy="16.933332"
       r="15.874999" />
    <path
       d="M 13.553183,9.5568091 C 13.056762,12.40878 12.41526,15.765311 11.641666,19.579166 11.112514,19.117684 10.363554,18.82791 9.5303854,18.82791 c -1.6023905,0 -2.9013699,1.06575 -2.9013699,2.380533 0,1.314781 1.2989794,2.380531 2.9013699,2.380531 1.6023916,0 2.6414696,-0.72268 2.9013706,-2.380531 0.371458,-2.606532 0.693542,-4.484063 1.272743,-8.053734 h 0.08454 c 0.97349,2.045774 1.97525,4.277025 3.004977,6.691673 l 1.051893,-2.149423 c -1.146154,-2.433005 -2.36032,-5.134786 -3.650597,-8.1403239 z m 9.830992,0 c -1.922644,3.9360329 -4.028599,8.2312419 -5.872099,11.9996389 0.214174,0.478841 0.213832,0.473733 0.706271,0.806455 1.391414,-3.185731 2.821015,-6.23621 4.287978,-9.15126 l 0.07567,0.0096 c 0.497372,3.746054 0.852824,6.812033 1.066876,9.198452 0.195174,-0.03778 0.513002,-0.05658 0.953701,-0.05658 0.52257,0 0.881268,0.01883 1.076442,0.05658 -0.705145,-4.230869 -1.308981,-8.518284 -1.812675,-12.8625029 z"
       id="path4"
       inkscape:connector-curvature="0"
       style="fill:#ffc107;fill-opacity:1;stroke-width:0.349035" />
  </g>
</svg>
