<?xml version="1.0" encoding="UTF-8" standalone="no"?>
<svg
   xmlns:dc="http://purl.org/dc/elements/1.1/"
   xmlns:cc="http://creativecommons.org/ns#"
   xmlns:rdf="http://www.w3.org/1999/02/22-rdf-syntax-ns#"
   xmlns:svg="http://www.w3.org/2000/svg"
   xmlns="http://www.w3.org/2000/svg"
   xmlns:sodipodi="http://sodipodi.sourceforge.net/DTD/sodipodi-0.dtd"
   xmlns:inkscape="http://www.inkscape.org/namespaces/inkscape"
   width="16"
   height="16"
   viewBox="0 0 4.2333332 4.2333332"
   version="1.1"
   id="svg2197"
   inkscape:version="1.0.1 (3bc2e813f5, 2020-09-07)"
   sodipodi:docname="musicus_symbolic.svg">
  <defs
     id="defs2191" />
  <sodipodi:namedview
     id="base"
     pagecolor="#ffffff"
     bordercolor="#666666"
     borderopacity="1.0"
     inkscape:pageopacity="0.0"
     inkscape:pageshadow="2"
     inkscape:zoom="31.083523"
     inkscape:cx="9.8959183"
     inkscape:cy="9.0432761"
     inkscape:document-units="px"
     inkscape:current-layer="layer1"
     inkscape:document-rotation="0"
     showgrid="true"
     inkscape:window-width="1396"
     inkscape:window-height="1016"
     inkscape:window-x="236"
     inkscape:window-y="185"
     inkscape:window-maximized="0"
     units="px">
    <inkscape:grid
       type="xygrid"
       id="grid2786"
       spacingx="0.52916665"
       spacingy="0.52916665"
       empspacing="2" />
  </sodipodi:namedview>
  <metadata
     id="metadata2194">
    <rdf:RDF>
      <cc:Work
         rdf:about="">
        <dc:format>image/svg+xml</dc:format>
        <dc:type
           rdf:resource="http://purl.org/dc/dcmitype/StillImage" />
        <dc:title></dc:title>
      </cc:Work>
    </rdf:RDF>
  </metadata>
  <g
     inkscape:label="Ebene 1"
     inkscape:groupmode="layer"
     id="layer1">
    <path
       d="M 1.6109484,0.75244585 C 1.5144212,1.3069954 1.3896858,1.9596541 1.2392649,2.7012366 1.1363746,2.6115036 0.99074332,2.5551592 0.82873813,2.5551592 c -0.31157571,0 -0.56415494,0.207229 -0.56415494,0.4628812 0,0.2556517 0.25257923,0.4628809 0.56415494,0.4628809 0.31157607,0 0.51361887,-0.1405212 0.56415527,-0.4628809 C 1.4651224,2.511215 1.5277477,2.1461397 1.6403711,1.4520373 h 0.016433 c 0.1892954,0.397789 0.3840822,0.8316432 0.5843067,1.3011582 L 2.4456455,2.3352522 C 2.2227823,1.8621681 1.9866947,1.3368218 1.7358073,0.7524119 Z m 1.9115815,0 C 3.1486824,1.5177853 2.7391913,2.3529645 2.380733,3.0857081 2.42238,3.1788171 2.422311,3.1778251 2.5180621,3.2425184 2.7886154,2.6230712 3.0665935,2.0299227 3.3518361,1.4631079 l 0.014716,0.00186 c 0.09671,0.7283991 0.1658266,1.3245612 0.2074481,1.7885873 0.037951,-0.00736 0.09975,-0.011014 0.1854421,-0.011014 0.1016105,0 0.1713582,0.00368 0.2093077,0.011014 C 3.8316365,2.4308883 3.7142245,1.5972244 3.6162839,0.7525155 Z"
       id="path4"
       inkscape:connector-curvature="0"
       style="fill:#000000;fill-opacity:1;stroke-width:0.0678681" />
  </g>
</svg>
